<svg width="84" height="98" viewBox="0 0 84 98" fill="none" xmlns="http://www.w3.org/2000/svg">
<path d="M40.728 82.8049C40.3214 81.8663 39.0988 81.1885 38.5383 80.9669L18.3583 84.7104C14.7424 85.2935 13.349 82.8974 13.1044 81.6264L9.09344 60.7918C9.25389 59.9136 9.92258 58.2032 11.3137 58.3873C12.7049 58.5714 15.6296 58.3096 16.918 58.1557C23.3444 57.0598 26.6584 50.0669 25.0178 43.7453C23.7053 38.6881 17.5982 36.7475 14.7087 36.4094L10.4873 37.2221C10.0305 37.197 8.05894 38.3015 7.13024 38.8569C5.84394 39.2175 5.14856 38.344 4.96165 37.8622L0.89831 16.7552C1.70225 13.889 3.28245 13.001 3.97206 12.9154C10.1278 11.6362 22.8038 9.06408 24.262 9.00932C25.7201 8.95456 26.4934 10.0861 26.6978 10.6587C26.29 14.4089 26.526 15.6345 26.4371 16.6402C26.3483 17.6458 30.0585 27.3819 39.1821 25.6255C48.3058 23.8691 48.3196 14.4046 47.9526 12.4982C47.5856 10.5917 45.6158 8.42897 45.2175 7.09344C44.8988 6.02503 45.9294 5.16759 46.4846 4.87243C52.2859 3.70853 64.493 1.2926 66.9107 0.940164C69.3283 0.587717 70.7502 2.79004 71.159 3.93527C74.8432 23.5618 82.4496 63.7576 83.4015 67.5285C84.3534 71.2995 81.6688 72.7108 80.2076 72.945L61.1432 76.6152C60.6789 76.8928 59.7041 77.7959 59.5201 79.1872C59.29 80.9262 60.7514 81.9157 61.5481 84.5868C62.3447 87.2578 61.5452 96.3087 52.238 97.1119C42.9308 97.9151 41.615 91.8135 40.5773 88.6239C39.5396 85.4344 41.2363 83.978 40.728 82.8049Z" fill="#A4E997"/>
</svg>
