<svg width="94" height="99" viewBox="0 0 94 99" fill="none" xmlns="http://www.w3.org/2000/svg">
<path d="M54.4155 12.8479C53.806 13.6693 52.4613 14.0512 51.8651 14.1395L33.066 5.90288C29.6775 4.51234 27.7756 6.52863 27.2482 7.71059L18.6023 27.0863C18.5587 27.978 18.8207 29.7956 20.2173 29.9329C21.6138 30.0701 24.4022 30.9904 25.6219 31.4334C31.6304 33.9627 33.2665 41.5263 30.2307 47.3087C27.802 51.9347 21.4135 52.4349 18.5229 52.1068L14.5971 50.355C14.1466 50.2755 12.478 48.7514 11.7 47.9993C10.5295 47.3555 9.65363 48.0479 9.36201 48.4746L0.603081 68.1035C0.733833 71.0775 2.07058 72.3016 2.72261 72.542C8.42588 75.1881 20.1843 80.5768 21.5917 80.9618C22.9992 81.3469 24.0097 80.421 24.339 79.9099C24.7951 76.1652 25.3037 75.0255 25.446 74.026C25.5882 73.0265 31.4162 64.3899 39.901 68.176C48.3858 71.9621 46.246 81.1815 45.4548 82.9544C44.6637 84.7274 42.2535 86.3853 41.5618 87.5951C41.0084 88.563 41.8169 89.6325 42.2903 90.0462C47.6747 92.4995 59.0121 97.6293 61.2861 98.5226C63.5601 99.4158 65.4459 97.5948 66.1045 96.5726C74.1573 78.2989 90.7094 40.8879 92.4942 37.4324C94.2791 33.9769 91.9861 31.9919 90.6165 31.4313L72.8871 23.52C72.4981 23.144 71.7543 22.0428 71.8916 20.6461C72.0632 18.9003 73.7115 18.2693 75.095 15.8495C76.4784 13.4298 77.759 4.43439 68.8787 1.53474C59.9983 -1.3649 57.3288 4.27732 55.5927 7.14712C53.8565 10.0169 55.1774 11.8211 54.4155 12.8479Z" fill="#8B2FFF"/>
</svg>
