<svg width="62" height="61" viewBox="0 0 62 61" fill="none" xmlns="http://www.w3.org/2000/svg">
<path d="M11.2299 44.9184C11.5307 44.3727 11.4018 43.5309 11.2997 43.1782L1.97528 34.8473C0.346718 33.3219 0.982309 31.7574 1.50367 31.1659L10.0504 21.4686C10.5334 21.2187 11.6069 20.9036 12.0366 21.6426C12.4663 22.3817 13.6824 23.6937 14.2367 24.2574C17.1598 26.9462 21.765 25.9375 24.2004 22.791C26.1486 20.2738 24.808 16.6072 23.8942 15.0886L21.9294 13.3569C21.7712 13.1275 20.5042 12.5888 19.8904 12.3482C19.2373 11.8627 19.3991 11.202 19.5617 10.9324L28.2201 1.10834C29.9011 0.427686 30.9179 0.858386 31.2162 1.15882C34.1267 3.64891 40.0902 8.7997 40.6599 9.48206C41.2297 10.1644 40.9725 10.9588 40.7727 11.2707C38.8133 12.4717 38.3106 13.0421 37.7928 13.3741C37.275 13.706 33.9653 19.1224 38.2118 22.865C42.4583 26.6077 47.0249 23.0874 47.807 22.2001C48.589 21.3127 48.8973 19.5574 49.3925 18.8677C49.7887 18.316 50.586 18.4932 50.9351 18.6507C53.658 21.013 59.3715 25.996 60.4423 27.0298C61.5131 28.0637 60.9816 29.5697 60.5819 30.1935C52.4957 39.2831 35.9577 57.9283 34.495 59.7923C33.0323 61.6564 31.3517 60.8885 30.6943 60.2715L21.8209 52.451C21.5141 52.3307 20.7156 52.1975 19.9765 52.6272C19.0526 53.1644 19.1203 54.2375 18.1298 55.6168C17.1394 56.9962 12.4793 59.9837 8.62382 55.7974C4.76833 51.611 7.21868 48.703 8.3692 47.0143C9.51971 45.3256 10.8539 45.6006 11.2299 44.9184Z" fill="#FBE600"/>
</svg>
