<svg width="59" height="60" viewBox="0 0 59 60" fill="none" xmlns="http://www.w3.org/2000/svg">
<path d="M13.1377 12.6639C13.3065 13.2637 12.9894 14.0542 12.8098 14.3744L1.83448 20.3653C-0.0984322 21.4802 0.164552 23.1482 0.537658 23.8429L6.65393 35.2303C7.06745 35.5836 8.04113 36.1347 8.62772 35.5128C9.2143 34.8909 10.697 33.8899 11.365 33.4672C14.8231 31.5139 19.0781 33.544 20.7337 37.162C22.0582 40.0564 19.9185 43.3218 18.6831 44.5927L16.3759 45.8319C16.1697 46.0194 14.8133 46.2556 14.1609 46.3503C13.4144 46.6745 13.4217 47.3547 13.5187 47.6542L19.7149 59.1906C21.197 60.2358 22.2851 60.0477 22.6439 59.823C26.0446 58.0604 33.0236 54.4015 33.7336 53.8667C34.4437 53.3318 34.374 52.4998 34.2504 52.1506C32.6156 50.5353 32.2559 49.8655 31.8272 49.4244C31.3985 48.9834 29.4079 42.956 34.3945 40.2777C39.3812 37.5993 43.0271 42.0663 43.5868 43.1083C44.1464 44.1503 44.0473 45.9297 44.3726 46.7139C44.6329 47.3413 45.4496 47.3502 45.8254 47.2762C49.0143 45.5954 55.7116 42.043 56.9896 41.2799C58.2675 40.5168 58.0926 38.9293 57.8453 38.231C52.0392 27.54 40.1769 5.62113 39.1767 3.47319C38.1765 1.32525 36.3653 1.69065 35.5847 2.14185L25.1648 7.73844C24.8386 7.7858 24.0307 7.73387 23.4088 7.14723C22.6313 6.41392 22.9414 5.38437 22.2907 3.81586C21.6401 2.24735 17.7819 -1.72203 13.0751 1.47733C8.36826 4.67669 10.0927 8.06592 10.8289 9.97211C11.565 11.8783 12.9268 11.9141 13.1377 12.6639Z" fill="#F9345F"/>
</svg>
