<svg width="24" height="24" viewBox="0 0 24 24" fill="none" xmlns="http://www.w3.org/2000/svg">
<g clip-path="url(#clip0_33_4619)">
<path d="M21.5731 9.64482L12.8231 2.29683C12.3518 1.90106 11.6482 1.90106 11.1769 2.29683L2.42687 9.64481C2.1556 9.87262 2 10.2017 2 10.5477V20.8003C2 21.4629 2.55964 22 3.25 22H8.25C8.94036 22 9.5 21.4629 9.5 20.8003V16.0016C9.5 15.3391 10.0596 14.802 10.75 14.802H13.25C13.9404 14.802 14.5 15.3391 14.5 16.0016V20.8003C14.5 21.4629 15.0596 22 15.75 22H20.75C21.4404 22 22 21.4629 22 20.8003V10.5477C22 10.2017 21.8444 9.87262 21.5731 9.64482Z" stroke="#8B2FFF" stroke-width="2.5" stroke-linecap="round" stroke-linejoin="round"/>
</g>
<defs>
<clipPath id="clip0_33_4619">
<rect width="24" height="24" fill="white"/>
</clipPath>
</defs>
</svg>
