<svg width="24" height="24" viewBox="0 0 24 24" fill="none" xmlns="http://www.w3.org/2000/svg">
<path d="M11.75 16.0833L11.75 11.75M11.75 7.41667H11.7392M21.5 11.75C21.5 10.4696 21.2478 9.20176 20.7578 8.01884C20.2678 6.83591 19.5497 5.76108 18.6443 4.85571C17.7389 3.95034 16.6641 3.23216 15.4812 2.74217C14.2982 2.25219 13.0304 2 11.75 2C10.4696 2 9.20176 2.25219 8.01884 2.74217C6.83591 3.23216 5.76108 3.95034 4.85571 4.85571C3.95034 5.76108 3.23216 6.83591 2.74217 8.01884C2.25219 9.20176 2 10.4696 2 11.75C2 14.3359 3.02723 16.8158 4.85571 18.6443C6.68419 20.4728 9.16414 21.5 11.75 21.5C14.3359 21.5 16.8158 20.4728 18.6443 18.6443C20.4728 16.8158 21.5 14.3359 21.5 11.75Z" stroke="#8B2FFF" stroke-width="2" stroke-linecap="round" stroke-linejoin="round"/>
</svg>
