<svg width="40" height="40" viewBox="0 0 40 40" fill="none" xmlns="http://www.w3.org/2000/svg">
<rect width="40" height="40" rx="20" fill="white" fill-opacity="0.5"/>
<path d="M23.5402 19.2895L17.8802 13.6395C17.7873 13.5458 17.6767 13.4714 17.5548 13.4207C17.4329 13.3699 17.3022 13.3438 17.1702 13.3438C17.0382 13.3438 16.9075 13.3699 16.7856 13.4207C16.6638 13.4714 16.5532 13.5458 16.4602 13.6395C16.274 13.8269 16.1694 14.0804 16.1694 14.3445C16.1694 14.6087 16.274 14.8622 16.4602 15.0495L21.4102 20.0495L16.4602 24.9995C16.274 25.1869 16.1694 25.4404 16.1694 25.7045C16.1694 25.9687 16.274 26.2222 16.4602 26.4095C16.5528 26.504 16.6633 26.5792 16.7852 26.6307C16.907 26.6822 17.0379 26.709 17.1702 26.7095C17.3025 26.709 17.4334 26.6822 17.5553 26.6307C17.6772 26.5792 17.7876 26.504 17.8802 26.4095L23.5402 20.7595C23.6417 20.6659 23.7227 20.5523 23.7781 20.4258C23.8336 20.2993 23.8622 20.1627 23.8622 20.0245C23.8622 19.8864 23.8336 19.7498 23.7781 19.6233C23.7227 19.4968 23.6417 19.3832 23.5402 19.2895Z" fill="black"/>
</svg>
