<svg width="40" height="40" viewBox="0 0 40 40" fill="none" xmlns="http://www.w3.org/2000/svg">
<rect width="40" height="40" rx="20" transform="matrix(-1 0 0 1 40 0)" fill="white" fill-opacity="0.5"/>
<path d="M16.4598 19.2895L22.1198 13.6395C22.2127 13.5458 22.3233 13.4714 22.4452 13.4207C22.5671 13.3699 22.6978 13.3438 22.8298 13.3438C22.9618 13.3438 23.0925 13.3699 23.2144 13.4207C23.3362 13.4714 23.4468 13.5458 23.5398 13.6395C23.726 13.8269 23.8306 14.0804 23.8306 14.3445C23.8306 14.6087 23.726 14.8622 23.5398 15.0495L18.5898 20.0495L23.5398 24.9995C23.726 25.1869 23.8306 25.4404 23.8306 25.7045C23.8306 25.9687 23.726 26.2222 23.5398 26.4095C23.4472 26.504 23.3367 26.5792 23.2148 26.6307C23.093 26.6822 22.9621 26.709 22.8298 26.7095C22.6975 26.709 22.5666 26.6822 22.4447 26.6307C22.3228 26.5792 22.2124 26.504 22.1198 26.4095L16.4598 20.7595C16.3583 20.6659 16.2773 20.5523 16.2219 20.4258C16.1664 20.2993 16.1378 20.1627 16.1378 20.0245C16.1378 19.8864 16.1664 19.7498 16.2219 19.6233C16.2773 19.4968 16.3583 19.3832 16.4598 19.2895Z" fill="black"/>
</svg>
