<svg width="2694" height="493" viewBox="0 0 2694 493" fill="none" xmlns="http://www.w3.org/2000/svg">
<path d="M144.164 87.3456C142.975 92.696 137.229 97.5015 134.504 99.2354L24.5228 99.9792C4.90456 100.574 0 114.594 0 121.53V235.226C1.73393 239.685 6.98528 248.007 14.1192 245.629C21.2531 243.251 36.908 241.666 43.8438 241.171C78.7701 240.428 103.293 273.868 101.064 308.794C99.2801 336.735 69.1097 353.133 54.2474 357.84H31.2108C28.8328 358.434 17.3393 354.619 11.8898 352.638C4.75593 352.043 1.98164 357.344 1.48623 360.069V475.251C8.62013 489.519 17.8348 492.591 21.5503 492.343C55.2382 492.839 124.546 493.532 132.274 492.343C140.003 491.154 142.926 484.417 143.421 481.196C137.476 461.875 137.476 455.187 135.99 449.986C134.504 444.784 144.164 389.793 193.953 389.793C243.742 389.793 253.402 439.582 253.402 449.986C253.402 460.389 245.228 473.765 244.485 481.196C243.89 487.141 250.182 490.609 253.402 491.6C285.108 491.848 351.79 492.194 364.869 491.6C377.948 491.005 383.199 477.976 384.19 471.536C383.695 364.528 383.001 145.309 384.19 124.502C385.379 103.695 369.823 98.9879 361.897 99.2354H257.861C255.136 98.2448 249.092 94.48 246.714 87.3456C243.742 78.4275 250.43 71.7402 251.916 56.8779C253.402 42.0157 240.026 -4.80047 190.237 0.401323C140.449 5.60312 139.706 39.0432 137.476 56.8779C135.247 74.7127 145.65 80.6576 144.164 87.3456Z" fill="#8B2FFF"/>
<path d="M466.161 354.493L439.626 327.317C433.918 321.891 426.719 318.297 418.952 316.994C411.186 315.692 403.207 316.743 396.042 320.01L384.505 308.473C398.1 290.308 404.309 267.667 401.882 245.108C399.454 222.549 388.571 201.748 371.423 186.89C354.275 172.033 332.135 164.224 309.46 165.034C286.786 165.845 265.26 175.215 249.216 191.259C233.173 207.302 223.802 228.828 222.992 251.503C222.181 274.177 229.991 296.317 244.848 313.465C259.705 330.613 280.507 341.497 303.066 343.924C325.625 346.351 348.266 340.143 366.431 326.548L377.84 337.956C374.187 345.13 372.879 353.269 374.097 361.226C375.316 369.183 379.001 376.557 384.634 382.309L411.809 409.485C419.02 416.686 428.794 420.731 438.985 420.731C449.176 420.731 458.95 416.686 466.161 409.485C469.823 405.903 472.734 401.626 474.721 396.904C476.708 392.183 477.731 387.111 477.731 381.989C477.731 376.866 476.708 371.795 474.721 367.073C472.734 362.351 469.823 358.074 466.161 354.493ZM357.458 300.141C348.488 309.089 337.067 315.177 324.639 317.637C312.21 320.097 299.331 318.818 287.629 313.962C275.927 309.106 265.927 300.891 258.891 290.355C251.856 279.818 248.101 267.433 248.101 254.763C248.101 242.093 251.856 229.708 258.891 219.171C265.927 208.635 275.927 200.42 287.629 195.564C299.331 190.708 312.21 189.429 324.639 191.889C337.067 194.349 348.488 200.437 357.458 209.385C363.427 215.338 368.162 222.411 371.393 230.198C374.625 237.985 376.288 246.332 376.288 254.763C376.288 263.193 374.625 271.541 371.393 279.328C368.162 287.115 363.427 294.187 357.458 300.141ZM448.086 390.769C446.895 391.971 445.477 392.925 443.915 393.575C442.353 394.226 440.677 394.561 438.985 394.561C437.293 394.561 435.617 394.226 434.055 393.575C432.493 392.925 431.075 391.971 429.884 390.769L402.708 363.594C401.506 362.402 400.553 360.984 399.902 359.422C399.251 357.86 398.916 356.185 398.916 354.493C398.916 352.8 399.251 351.125 399.902 349.563C400.553 348.001 401.506 346.583 402.708 345.391C403.9 344.19 405.317 343.236 406.879 342.585C408.442 341.935 410.117 341.599 411.809 341.599C413.501 341.599 415.177 341.935 416.739 342.585C418.301 343.236 419.719 344.19 420.911 345.391L448.086 372.567C449.288 373.759 450.241 375.176 450.892 376.738C451.543 378.3 451.878 379.976 451.878 381.668C451.878 383.36 451.543 385.036 450.892 386.598C450.241 388.16 449.288 389.578 448.086 390.769Z" fill="#F9345F"/>
<path d="M617.111 190.715C611.468 192.282 606.178 193.889 601.24 195.535C596.302 197.18 591.953 198.787 588.191 200.355L581.725 167.084C590.111 164.498 598.262 162.225 606.178 160.266C614.172 158.306 621.814 156.621 629.102 155.211C636.391 153.8 643.288 152.624 649.794 151.684C656.299 150.743 662.334 149.959 667.898 149.332C680.83 147.922 692.782 147.177 703.755 147.099C715.276 147.255 725.347 148.392 733.969 150.508C742.59 152.624 749.761 155.602 755.483 159.443C761.282 163.283 765.632 167.907 768.532 173.315C771.432 178.723 772.882 184.758 772.882 191.42C772.882 200.12 770.844 207.879 766.769 214.697C762.772 221.516 757.442 227.551 750.78 232.802C744.118 237.975 736.477 242.442 727.855 246.204C719.312 249.966 710.495 253.14 701.404 255.727C692.312 258.313 683.299 260.39 674.364 261.958C665.429 263.447 657.318 264.583 650.029 265.367L650.264 297.579L690 297.814V324.854L590.307 331.085L589.601 297.109L624.753 297.344L617.111 190.715ZM697.054 175.549C694.389 175.549 691.293 175.745 687.766 176.137C684.318 176.45 680.556 176.92 676.48 177.547C672.405 178.096 668.094 178.801 663.548 179.664C659.003 180.526 654.339 181.466 649.558 182.485L650.029 246.087C655.672 244.911 661.628 243.461 667.898 241.737C674.247 239.934 680.477 237.857 686.591 235.506C692.782 233.155 698.661 230.529 704.225 227.629C709.79 224.651 714.61 221.398 718.685 217.872C722.761 214.345 725.896 210.583 728.09 206.586C730.363 202.51 731.225 198.199 730.677 193.654C730.285 190.362 729.188 187.58 727.385 185.307C725.582 182.955 723.192 181.074 720.214 179.664C717.314 178.174 713.865 177.116 709.868 176.489C705.949 175.862 701.678 175.549 697.054 175.549ZM875.397 299.813L871.517 329.909L783.815 327.44L780.053 306.044L815.675 303.81L815.44 236.682L778.76 235.506V216.696L852.707 211.876L843.772 301.929L875.397 299.813ZM852.707 184.249C852.707 186.13 852.119 187.932 850.944 189.656C849.846 191.302 848.318 192.752 846.359 194.006C844.399 195.26 842.087 196.279 839.423 197.063C836.836 197.768 834.054 198.121 831.076 198.121C828.019 198.121 825.158 197.768 822.494 197.063C819.907 196.279 817.634 195.26 815.675 194.006C813.715 192.752 812.148 191.302 810.972 189.656C809.875 187.932 809.326 186.13 809.326 184.249C809.326 182.289 809.875 180.447 810.972 178.723C812.148 176.92 813.715 175.392 815.675 174.138C817.634 172.884 819.907 171.904 822.494 171.199C825.158 170.415 828.019 170.023 831.076 170.023C834.054 170.023 836.836 170.415 839.423 171.199C842.087 171.904 844.399 172.884 846.359 174.138C848.318 175.392 849.846 176.92 850.944 178.723C852.119 180.447 852.707 182.289 852.707 184.249ZM1013.42 304.398C1009.81 309.022 1005.97 312.941 1001.89 316.154C997.819 319.289 993.665 321.915 989.433 324.031C985.279 326.069 981.164 327.636 977.089 328.733C973.013 329.909 969.212 330.732 965.685 331.202C962.158 331.751 958.984 332.064 956.163 332.143C953.341 332.221 951.107 332.26 949.462 332.26C943.27 332.26 937.235 331.555 931.357 330.144C925.479 328.812 919.914 326.852 914.663 324.266C909.49 321.68 904.788 318.466 900.555 314.626C896.323 310.786 892.718 306.436 889.74 301.576C886.84 296.717 884.684 291.348 883.274 285.47C881.863 279.514 881.432 273.126 881.98 266.308C882.842 255.257 885.35 245.773 889.504 237.857C893.737 229.863 898.988 223.319 905.258 218.224C911.606 213.051 918.66 209.25 926.419 206.821C934.257 204.391 942.173 203.176 950.167 203.176C953.772 203.333 957.573 203.842 961.57 204.705C964.941 205.488 968.742 206.664 972.974 208.231C977.206 209.799 981.478 211.993 985.788 214.815L989.903 194.829L1018.47 200.355L998.72 253.023L978.735 250.672L982.144 233.507C979.244 231.235 976.462 229.51 973.797 228.335C971.211 227.081 968.899 226.14 966.861 225.513C964.51 224.808 962.315 224.377 960.277 224.22C953.694 224.22 947.894 225.278 942.878 227.394C937.94 229.51 933.747 232.449 930.299 236.211C926.929 239.895 924.381 244.323 922.657 249.496C920.933 254.59 920.071 260.194 920.071 266.308C920.071 272.969 920.815 279.122 922.304 284.765C923.872 290.408 926.302 295.306 929.593 299.46C932.885 303.536 937.039 306.749 942.055 309.1C947.149 311.373 953.224 312.51 960.277 312.51C964.745 312.196 969.055 310.942 973.209 308.748C974.933 307.807 976.736 306.632 978.617 305.221C980.498 303.732 982.34 301.968 984.143 299.931C985.945 297.814 987.669 295.385 989.315 292.642C990.961 289.82 992.411 286.568 993.665 282.884L1013.42 304.398ZM1077.96 281.238C1077.96 285.47 1078.55 289.154 1079.72 292.289C1080.98 295.424 1082.66 298.05 1084.78 300.166C1086.89 302.203 1089.36 303.732 1092.18 304.751C1095.08 305.769 1098.18 306.279 1101.47 306.279C1104.76 306.279 1108.21 305.769 1111.82 304.751C1115.42 303.732 1118.99 302.203 1122.51 300.166C1126.04 298.128 1129.49 295.581 1132.86 292.524C1136.23 289.467 1139.36 285.941 1142.26 281.943C1143.05 284.765 1143.87 287.861 1144.73 291.231C1145.52 294.131 1146.38 297.501 1147.32 301.341C1148.34 305.103 1149.44 309.14 1150.61 313.45C1145.91 316.977 1141.29 319.877 1136.74 322.15C1132.19 324.423 1127.77 326.225 1123.45 327.558C1119.22 328.89 1115.15 329.792 1111.23 330.262C1107.31 330.81 1103.66 331.085 1100.29 331.085C1091.52 331.085 1084.07 329.909 1077.96 327.558C1071.92 325.285 1066.87 322.15 1062.79 318.153C1058.8 314.077 1055.66 309.336 1053.39 303.928C1051.19 298.441 1049.55 292.563 1048.45 286.293C1047.35 279.945 1046.69 273.361 1046.45 266.543C1046.22 259.646 1046.1 252.827 1046.1 246.087C1046.1 244.362 1046.14 242.403 1046.22 240.209C1046.29 238.014 1046.41 235.702 1046.57 233.272L1018.47 234.095L1020.82 209.525L1049.27 207.291C1050.06 200.629 1050.88 194.124 1051.74 187.775C1052.68 181.427 1053.5 175.706 1054.21 170.611C1055.07 164.655 1055.9 159.012 1056.68 153.682L1094.77 156.504C1093.83 160.736 1092.89 165.36 1091.95 170.376C1091.09 174.687 1090.11 179.742 1089.01 185.542C1087.99 191.263 1086.93 197.494 1085.83 204.234L1136.86 200.12L1136.15 230.451L1081.72 232.097C1080.54 240.875 1079.6 249.457 1078.9 257.843C1078.27 266.151 1077.96 273.949 1077.96 281.238ZM1318.96 329.204H1255.36L1256.89 309.923C1250.93 314.626 1245.09 318.231 1239.37 320.739C1233.73 323.247 1228.67 325.089 1224.21 326.265C1218.95 327.675 1213.94 328.459 1209.16 328.616C1201.71 328.616 1195.52 327.675 1190.58 325.794C1185.65 323.835 1181.69 321.131 1178.71 317.683C1175.81 314.156 1173.73 309.963 1172.48 305.103C1171.22 300.166 1170.6 294.679 1170.6 288.644C1170.6 285.431 1170.64 282.61 1170.71 280.18C1170.79 277.75 1170.91 275.438 1171.07 273.244C1171.3 270.971 1171.54 268.659 1171.77 266.308C1172.09 263.956 1172.44 261.252 1172.83 258.196C1173.3 255.139 1173.77 251.612 1174.24 247.615C1174.79 243.539 1175.42 238.68 1176.12 233.037L1151.08 234.566L1154.73 206.35L1212.8 208.819C1211.86 217.519 1211.04 225.082 1210.33 231.509C1209.63 237.857 1209 243.383 1208.45 248.085C1207.98 252.788 1207.55 256.785 1207.16 260.077C1206.85 263.368 1206.57 266.308 1206.34 268.894C1206.1 271.402 1205.94 273.675 1205.87 275.713C1205.79 277.672 1205.75 279.749 1205.75 281.943C1205.75 285.47 1206.02 288.801 1206.57 291.936C1207.12 295.071 1208.06 297.814 1209.39 300.166C1210.8 302.517 1212.61 304.359 1214.8 305.691C1217.07 307.023 1219.86 307.69 1223.15 307.69C1227.22 307.455 1231.38 306.318 1235.61 304.28C1239.22 302.556 1243.06 299.852 1247.13 296.169C1251.28 292.485 1255.24 287.195 1259 280.298L1262.65 230.686L1236.08 231.626L1238.55 206.35L1318.96 209.289V228.217L1292.28 229.51L1293.69 306.279L1318.96 308.395V329.204ZM1427.71 299.578V319.328L1337.18 330.85L1333.77 300.753L1363.87 300.518L1365.28 235.271L1328.72 232.567V212.581L1404.78 205.88L1400.9 232.097C1402.63 230.294 1404.9 228.217 1407.72 225.866C1410.54 223.436 1413.64 221.007 1417.01 218.577C1420.46 216.069 1424.1 213.561 1427.94 211.053C1431.86 208.545 1435.78 206.272 1439.7 204.234C1443.62 202.118 1447.46 200.316 1451.22 198.826C1455.06 197.259 1458.59 196.162 1461.8 195.535L1464.98 234.566C1453.69 234.566 1443.97 235.545 1435.82 237.505C1427.75 239.464 1421.01 241.619 1415.6 243.971C1409.33 246.714 1404.04 249.81 1399.73 253.258L1391.5 300.048L1427.71 299.578ZM1609.93 286.293C1606.95 294.052 1602.8 300.793 1597.47 306.514C1592.22 312.157 1586.26 316.86 1579.6 320.622C1572.94 324.305 1565.88 327.048 1558.44 328.851C1550.99 330.654 1543.66 331.555 1536.45 331.555C1526.42 331.555 1517.49 329.987 1509.65 326.852C1501.81 323.717 1495.15 319.485 1489.66 314.156C1484.18 308.826 1479.87 302.595 1476.73 295.463C1473.67 288.253 1471.91 280.611 1471.44 272.538C1471.44 260.233 1473.48 249.731 1477.55 241.031C1481.71 232.253 1487.31 225.121 1494.37 219.635C1501.5 214.149 1509.81 210.152 1519.29 207.644C1528.77 205.057 1538.84 203.764 1549.5 203.764C1553.42 203.764 1557.46 204.038 1561.61 204.587C1565.84 205.136 1569.96 206.115 1573.96 207.526C1577.95 208.937 1581.75 210.896 1585.36 213.404C1589.04 215.834 1592.33 219.008 1595.23 222.927C1598.21 226.767 1600.72 231.391 1602.76 236.799C1604.8 242.207 1606.21 248.595 1606.99 255.962L1510.47 273.244C1511.1 278.652 1512.2 283.942 1513.76 289.115C1515.41 294.288 1517.6 298.872 1520.35 302.87C1523.09 306.788 1526.46 309.923 1530.46 312.275C1534.53 314.548 1539.35 315.606 1544.92 315.449C1550.95 314.743 1556.28 312.941 1560.91 310.041C1562.87 308.787 1564.75 307.259 1566.55 305.456C1568.35 303.575 1569.92 301.341 1571.25 298.755C1572.58 296.169 1573.56 293.151 1574.19 289.703C1574.82 286.254 1574.94 282.296 1574.54 277.829L1609.93 286.293ZM1565.37 248.438C1565.06 244.754 1564.39 241.541 1563.38 238.798C1562.36 236.055 1561.06 233.703 1559.5 231.744C1558.01 229.785 1556.32 228.178 1554.44 226.924C1552.64 225.592 1550.8 224.533 1548.92 223.75C1544.53 221.947 1539.59 221.124 1534.1 221.281C1528.93 221.908 1524.74 223.397 1521.52 225.748C1518.31 228.021 1515.8 230.882 1514 234.33C1512.27 237.701 1511.1 241.463 1510.47 245.616C1509.84 249.77 1509.53 254.003 1509.53 258.313L1565.37 248.438ZM1915.71 329.674L1814.61 326.5L1813.9 296.639L1848.58 295.228L1851.87 251.377L1758.29 256.902L1755.12 291.584L1796.5 291.819L1794.86 328.851L1693.99 320.739L1694.69 290.878L1732.43 291.348L1728.67 190.715L1693.99 191.655V154.623L1795.8 158.737L1795.09 188.481L1764.76 189.539L1760.65 231.156H1853.64L1856.93 190.95L1814.84 194.359L1812.84 156.974L1914.77 156.033L1915.71 185.894L1879.62 189.069V294.052L1915.71 292.524V329.674ZM2089.7 329.204H2026.1L2027.63 309.923C2021.67 314.626 2015.84 318.231 2010.11 320.739C2004.47 323.247 1999.42 325.089 1994.95 326.265C1989.7 327.675 1984.68 328.459 1979.9 328.616C1972.46 328.616 1966.26 327.675 1961.33 325.794C1956.39 323.835 1952.43 321.131 1949.45 317.683C1946.55 314.156 1944.48 309.963 1943.22 305.103C1941.97 300.166 1941.34 294.679 1941.34 288.644C1941.34 285.431 1941.38 282.61 1941.46 280.18C1941.54 277.75 1941.65 275.438 1941.81 273.244C1942.05 270.971 1942.28 268.659 1942.52 266.308C1942.83 263.956 1943.18 261.252 1943.57 258.196C1944.04 255.139 1944.51 251.612 1944.98 247.615C1945.53 243.539 1946.16 238.68 1946.87 233.037L1921.82 234.566L1925.47 206.35L1983.55 208.819C1982.6 217.519 1981.78 225.082 1981.08 231.509C1980.37 237.857 1979.74 243.383 1979.2 248.085C1978.73 252.788 1978.29 256.785 1977.9 260.077C1977.59 263.368 1977.31 266.308 1977.08 268.894C1976.84 271.402 1976.69 273.675 1976.61 275.713C1976.53 277.672 1976.49 279.749 1976.49 281.943C1976.49 285.47 1976.77 288.801 1977.31 291.936C1977.86 295.071 1978.8 297.814 1980.14 300.166C1981.55 302.517 1983.35 304.359 1985.54 305.691C1987.82 307.023 1990.6 307.69 1993.89 307.69C1997.97 307.455 2002.12 306.318 2006.35 304.28C2009.96 302.556 2013.8 299.852 2017.87 296.169C2022.03 292.485 2025.99 287.195 2029.75 280.298L2033.39 230.686L2006.82 231.626L2009.29 206.35L2089.7 209.289V228.217L2063.02 229.51L2064.43 306.279L2089.7 308.395V329.204ZM2184.93 303.81L2182.81 329.204L2102.05 328.616V307.219L2126.38 306.279L2124.74 232.332L2099.7 233.037V211.641L2165.65 203.176L2164 225.631C2169.73 221.163 2175.37 217.715 2180.93 215.285C2186.58 212.777 2191.63 210.857 2196.1 209.525C2201.35 208.035 2206.37 207.056 2211.15 206.586C2218.91 206.586 2225.49 207.644 2230.9 209.76C2236.38 211.797 2240.81 214.737 2244.18 218.577C2247.63 222.339 2250.14 226.885 2251.71 232.214C2253.27 237.544 2254.06 243.461 2254.06 249.966C2254.06 252.709 2254.02 255.139 2253.94 257.255C2253.86 259.371 2253.71 261.448 2253.47 263.486C2253.31 265.445 2253.08 267.522 2252.76 269.717C2252.53 271.833 2252.22 274.38 2251.82 277.358C2251.43 280.337 2250.96 283.864 2250.41 287.939C2249.94 291.936 2249.39 296.756 2248.77 302.399L2273.81 300.989L2270.4 329.204L2207.5 326.735C2208.44 317.565 2209.27 309.688 2209.97 303.105C2210.68 296.521 2211.3 290.917 2211.85 286.293C2212.4 281.591 2212.83 277.672 2213.15 274.537C2213.46 271.324 2213.73 268.541 2213.97 266.19C2214.2 263.76 2214.36 261.566 2214.44 259.606C2214.52 257.647 2214.56 255.531 2214.56 253.258C2214.56 249.731 2214.28 246.439 2213.73 243.383C2213.18 240.248 2212.21 237.505 2210.79 235.153C2209.46 232.802 2207.66 230.96 2205.39 229.628C2203.19 228.217 2200.45 227.433 2197.16 227.277C2194.18 227.668 2190.89 228.609 2187.28 230.098C2184.15 231.431 2180.46 233.39 2176.23 235.976C2172.08 238.484 2167.49 242.09 2162.48 246.792L2158.48 305.103L2184.93 303.81ZM2331.65 281.238C2331.65 285.47 2332.24 289.154 2333.41 292.289C2334.67 295.424 2336.35 298.05 2338.47 300.166C2340.58 302.203 2343.05 303.732 2345.87 304.751C2348.77 305.769 2351.87 306.279 2355.16 306.279C2358.45 306.279 2361.9 305.769 2365.51 304.751C2369.11 303.732 2372.68 302.203 2376.21 300.166C2379.73 298.128 2383.18 295.581 2386.55 292.524C2389.92 289.467 2393.06 285.941 2395.96 281.943C2396.74 284.765 2397.56 287.861 2398.43 291.231C2399.21 294.131 2400.07 297.501 2401.01 301.341C2402.03 305.103 2403.13 309.14 2404.3 313.45C2399.6 316.977 2394.98 319.877 2390.43 322.15C2385.88 324.423 2381.46 326.225 2377.15 327.558C2372.91 328.89 2368.84 329.792 2364.92 330.262C2361 330.81 2357.36 331.085 2353.99 331.085C2345.21 331.085 2337.76 329.909 2331.65 327.558C2325.61 325.285 2320.56 322.15 2316.48 318.153C2312.49 314.077 2309.35 309.336 2307.08 303.928C2304.88 298.441 2303.24 292.563 2302.14 286.293C2301.04 279.945 2300.38 273.361 2300.14 266.543C2299.91 259.646 2299.79 252.827 2299.79 246.087C2299.79 244.362 2299.83 242.403 2299.91 240.209C2299.99 238.014 2300.1 235.702 2300.26 233.272L2272.16 234.095L2274.51 209.525L2302.96 207.291C2303.75 200.629 2304.57 194.124 2305.43 187.775C2306.37 181.427 2307.2 175.706 2307.9 170.611C2308.76 164.655 2309.59 159.012 2310.37 153.682L2348.46 156.504C2347.52 160.736 2346.58 165.36 2345.64 170.376C2344.78 174.687 2343.8 179.742 2342.7 185.542C2341.68 191.263 2340.62 197.494 2339.53 204.234L2390.55 200.12L2389.84 230.451L2335.41 232.097C2334.24 240.875 2333.3 249.457 2332.59 257.843C2331.96 266.151 2331.65 273.949 2331.65 281.238ZM2546.67 286.293C2543.69 294.052 2539.54 300.793 2534.21 306.514C2528.96 312.157 2523 316.86 2516.34 320.622C2509.68 324.305 2502.62 327.048 2495.18 328.851C2487.73 330.654 2480.41 331.555 2473.2 331.555C2463.16 331.555 2454.23 329.987 2446.39 326.852C2438.55 323.717 2431.89 319.485 2426.4 314.156C2420.92 308.826 2416.61 302.595 2413.47 295.463C2410.42 288.253 2408.65 280.611 2408.18 272.538C2408.18 260.233 2410.22 249.731 2414.3 241.031C2418.45 232.253 2424.05 225.121 2431.11 219.635C2438.24 214.149 2446.55 210.152 2456.03 207.644C2465.51 205.057 2475.59 203.764 2486.24 203.764C2490.16 203.764 2494.2 204.038 2498.35 204.587C2502.59 205.136 2506.7 206.115 2510.7 207.526C2514.69 208.937 2518.5 210.896 2522.1 213.404C2525.78 215.834 2529.08 219.008 2531.98 222.927C2534.95 226.767 2537.46 231.391 2539.5 236.799C2541.54 242.207 2542.95 248.595 2543.73 255.962L2447.21 273.244C2447.84 278.652 2448.94 283.942 2450.51 289.115C2452.15 294.288 2454.35 298.872 2457.09 302.87C2459.83 306.788 2463.2 309.923 2467.2 312.275C2471.27 314.548 2476.09 315.606 2481.66 315.449C2487.69 314.743 2493.02 312.941 2497.65 310.041C2499.61 308.787 2501.49 307.259 2503.29 305.456C2505.09 303.575 2506.66 301.341 2507.99 298.755C2509.33 296.169 2510.31 293.151 2510.93 289.703C2511.56 286.254 2511.68 282.296 2511.29 277.829L2546.67 286.293ZM2502.12 248.438C2501.8 244.754 2501.14 241.541 2500.12 238.798C2499.1 236.055 2497.8 233.703 2496.24 231.744C2494.75 229.785 2493.06 228.178 2491.18 226.924C2489.38 225.592 2487.54 224.533 2485.66 223.75C2481.27 221.947 2476.33 221.124 2470.84 221.281C2465.67 221.908 2461.48 223.397 2458.26 225.748C2455.05 228.021 2452.54 230.882 2450.74 234.33C2449.02 237.701 2447.84 241.463 2447.21 245.616C2446.59 249.77 2446.27 254.003 2446.27 258.313L2502.12 248.438ZM2653.18 299.578V319.328L2562.66 330.85L2559.25 300.753L2589.35 300.518L2590.76 235.271L2554.2 232.567V212.581L2630.26 205.88L2626.38 232.097C2628.1 230.294 2630.38 228.217 2633.2 225.866C2636.02 223.436 2639.12 221.007 2642.49 218.577C2645.93 216.069 2649.58 213.561 2653.42 211.053C2657.34 208.545 2661.26 206.272 2665.18 204.234C2669.09 202.118 2672.93 200.316 2676.7 198.826C2680.54 197.259 2684.06 196.162 2687.28 195.535L2690.45 234.566C2679.17 234.566 2669.45 235.545 2661.3 237.505C2653.22 239.464 2646.48 241.619 2641.07 243.971C2634.8 246.714 2629.51 249.81 2625.2 253.258L2616.97 300.048L2653.18 299.578Z" fill="#0B0B0B"/>
</svg>
