<svg width="161" height="42" viewBox="0 0 161 42" fill="none" xmlns="http://www.w3.org/2000/svg">
<path d="M11.9753 7.77997C11.8765 8.22442 11.3992 8.62359 11.1728 8.76763L2.03704 8.82942C0.407407 8.8788 0 10.0434 0 10.6195V20.064C0.144033 20.4344 0.580247 21.1257 1.17284 20.9282C1.76543 20.7306 3.06584 20.599 3.64198 20.5578C6.54321 20.4961 8.58025 23.2739 8.39506 26.1751C8.24691 28.4961 5.74074 29.8582 4.50617 30.2492H2.59259C2.39506 30.2986 1.44033 29.9817 0.987654 29.8171C0.395062 29.7677 0.164609 30.208 0.123457 30.4344V40.0023C0.716049 41.1874 1.48148 41.4426 1.79012 41.422C4.58848 41.4632 10.3457 41.5208 10.9877 41.422C11.6296 41.3232 11.8724 40.7636 11.9136 40.4961C11.4198 38.8911 11.4198 38.3356 11.2963 37.9035C11.1728 37.4714 11.9753 32.9035 16.1111 32.9035C20.2469 32.9035 21.0494 37.0393 21.0494 37.9035C21.0494 38.7677 20.3704 39.8788 20.3086 40.4961C20.2593 40.9899 20.7819 41.278 21.0494 41.3603C23.6831 41.3809 29.2222 41.4097 30.3086 41.3603C31.3951 41.3109 31.8313 40.2286 31.9136 39.6936C31.8724 30.8047 31.8148 12.5948 31.9136 10.8665C32.0123 9.13806 30.7202 8.74707 30.0617 8.76763H21.4198C21.1934 8.68534 20.6914 8.37261 20.4938 7.77997C20.2469 7.03917 20.8025 6.48368 20.9259 5.24911C21.0494 4.01454 19.9383 0.125652 15.8025 0.557751C11.6667 0.98985 11.6049 3.76763 11.4198 5.24911C11.2346 6.73059 12.0988 7.22442 11.9753 7.77997Z" fill="#8B2FFF"/>
<g clip-path="url(#clip0_33_5257)">
<path d="M38.7227 29.971L36.5185 27.7136C36.0444 27.263 35.4463 26.9643 34.8012 26.8562C34.156 26.748 33.4933 26.8353 32.8981 27.1067L31.9398 26.1484C33.0691 24.6394 33.5848 22.7587 33.3832 20.8848C33.1816 19.0109 32.2775 17.2829 30.8531 16.0488C29.4286 14.8147 27.5895 14.166 25.706 14.2333C23.8225 14.3006 22.0344 15.079 20.7017 16.4117C19.369 17.7444 18.5906 19.5324 18.5233 21.416C18.456 23.2995 19.1047 25.1386 20.3388 26.563C21.573 27.9875 23.3009 28.8915 25.1748 29.0931C27.0487 29.2948 28.9295 28.779 30.4384 27.6497L31.3861 28.5974C31.0827 29.1933 30.974 29.8694 31.0752 30.5304C31.1765 31.1914 31.4826 31.8039 31.9504 32.2817L34.2078 34.5391C34.8068 35.1373 35.6187 35.4733 36.4653 35.4733C37.3118 35.4733 38.1237 35.1373 38.7227 34.5391C39.0269 34.2416 39.2687 33.8863 39.4337 33.4941C39.5988 33.1019 39.6838 32.6806 39.6838 32.2551C39.6838 31.8295 39.5988 31.4083 39.4337 31.0161C39.2687 30.6238 39.0269 30.2685 38.7227 29.971ZM29.693 25.4562C28.9479 26.1995 27.9992 26.7052 26.9668 26.9095C25.9344 27.1139 24.8646 27.0077 23.8926 26.6043C22.9205 26.2009 22.0898 25.5185 21.5054 24.6433C20.9209 23.768 20.609 22.7392 20.609 21.6868C20.609 20.6344 20.9209 19.6055 21.5054 18.7303C22.0898 17.855 22.9205 17.1726 23.8926 16.7693C24.8646 16.3659 25.9344 16.2597 26.9668 16.464C27.9992 16.6684 28.9479 17.1741 29.693 17.9173C30.1888 18.4119 30.5822 18.9994 30.8506 19.6462C31.119 20.2931 31.2572 20.9865 31.2572 21.6868C31.2572 22.3871 31.119 23.0805 30.8506 23.7273C30.5822 24.3742 30.1888 24.9617 29.693 25.4562ZM37.2213 32.9845C37.1223 33.0843 37.0045 33.1635 36.8748 33.2175C36.745 33.2716 36.6058 33.2994 36.4653 33.2994C36.3247 33.2994 36.1855 33.2716 36.0557 33.2175C35.926 33.1635 35.8082 33.0843 35.7092 32.9845L33.4518 30.7271C33.352 30.6281 33.2728 30.5103 33.2187 30.3805C33.1647 30.2508 33.1369 30.1116 33.1369 29.971C33.1369 29.8305 33.1647 29.6913 33.2187 29.5615C33.2728 29.4318 33.352 29.314 33.4518 29.215C33.5508 29.1152 33.6686 29.036 33.7983 28.9819C33.9281 28.9279 34.0673 28.9001 34.2078 28.9001C34.3484 28.9001 34.4876 28.9279 34.6173 28.9819C34.7471 29.036 34.8649 29.1152 34.9639 29.215L37.2213 31.4724C37.3211 31.5714 37.4003 31.6892 37.4543 31.8189C37.5084 31.9487 37.5362 32.0879 37.5362 32.2285C37.5362 32.369 37.5084 32.5082 37.4543 32.638C37.4003 32.7677 37.3211 32.8855 37.2213 32.9845Z" fill="#F9345F"/>
</g>
<path d="M49.8 27.5V13.5H56.78L59.1 14.84V20.78L56.78 22.12H51.8V27.5H49.8ZM51.8 15.3V20.32H57.1V15.3H51.8ZM64.04 17.5V27.5H62.1V17.5H64.04ZM62 15.04V12.9H64.14V15.04H62ZM69.1767 19.24V25.76H74.7367V27.5H69.5567L67.2367 26.16V18.84L69.5567 17.5H74.7367V19.24H69.1767ZM76.7297 19.24V17.5H78.5697V15.82L80.5097 14.7V17.5H82.9097V19.24H80.5097V25.76H82.9097V27.5H80.8897L78.5697 26.16V19.24H76.7297ZM85.7133 26.26V17.5H87.6533V25.86H92.2733V17.5H94.2133V27.6H92.7533L92.2733 26.78L90.8533 27.6H88.0333L85.7133 26.26ZM102.993 19.24H99.3525V27.5H97.4125V17.5H98.8725L99.3525 18.32L100.773 17.5H102.993V19.24ZM113.086 25.76V27.5H107.506L105.186 26.16V18.74L107.506 17.4H110.766L113.086 18.74V23.18H107.126V25.76H113.086ZM107.126 19.14V21.44H111.146V19.14H107.126ZM118.48 21.2V27.5H116.48V13.5H118.48V19.4H125.18V13.5H127.18V27.5H125.18V21.2H118.48ZM130.577 26.26V17.5H132.517V25.86H137.137V17.5H139.077V27.6H137.617L137.137 26.78L135.717 27.6H132.897L130.577 26.26ZM150.776 18.74V27.5H148.836V19.14H144.216V27.5H142.276V17.4H143.736L144.216 18.22L145.636 17.4H148.456L150.776 18.74ZM153.175 19.24V17.5H155.015V15.82L156.955 14.7V17.5H159.355V19.24H156.955V25.76H159.355V27.5H157.335L155.015 26.16V19.24H153.175Z" fill="#0B0B0B"/>
<defs>
<clipPath id="clip0_33_5257">
<rect width="21.8519" height="27.7778" fill="white" transform="translate(18.1479 11.0186)"/>
</clipPath>
</defs>
</svg>
