<svg width="482" height="493" viewBox="0 0 482 493" fill="none" xmlns="http://www.w3.org/2000/svg">
<path d="M144.164 87.3456C142.975 92.696 137.229 97.5015 134.504 99.2354L24.5228 99.9792C4.90456 100.574 0 114.594 0 121.53V235.226C1.73393 239.685 6.98528 248.007 14.1192 245.629C21.2531 243.251 36.908 241.666 43.8438 241.171C78.7701 240.428 103.293 273.868 101.064 308.794C99.2801 336.735 69.1097 353.133 54.2474 357.84H31.2108C28.8328 358.434 17.3393 354.619 11.8898 352.638C4.75593 352.043 1.98164 357.344 1.48623 360.069V475.251C8.62013 489.519 17.8348 492.591 21.5503 492.343C55.2382 492.839 124.546 493.532 132.274 492.343C140.003 491.154 142.926 484.417 143.421 481.196C137.476 461.875 137.476 455.187 135.99 449.986C134.504 444.784 144.164 389.793 193.953 389.793C243.742 389.793 253.402 439.582 253.402 449.986C253.402 460.389 245.228 473.765 244.485 481.196C243.89 487.141 250.182 490.609 253.402 491.6C285.108 491.848 351.79 492.194 364.869 491.6C377.948 491.005 383.199 477.976 384.19 471.536C383.695 364.528 383.001 145.309 384.19 124.502C385.379 103.695 369.823 98.9879 361.897 99.2354H257.861C255.136 98.2448 249.092 94.48 246.714 87.3456C243.742 78.4275 250.43 71.7402 251.916 56.8779C253.402 42.0157 240.026 -4.80047 190.237 0.401323C140.449 5.60312 139.706 39.0432 137.476 56.8779C135.247 74.7127 145.65 80.6576 144.164 87.3456Z" fill="#8B2FFF"/>
<path d="M466.161 354.492L439.626 327.317C433.919 321.891 426.719 318.296 418.953 316.994C411.186 315.692 403.208 316.743 396.043 320.01L384.506 308.473C398.101 290.308 404.31 267.667 401.882 245.108C399.455 222.549 388.572 201.747 371.423 186.89C354.275 172.033 332.135 164.224 309.461 165.034C286.786 165.845 265.26 175.215 249.217 191.258C233.173 207.302 223.803 228.828 222.992 251.503C222.182 274.177 229.991 296.317 244.848 313.465C259.706 330.613 280.508 341.497 303.066 343.924C325.625 346.351 348.266 340.143 366.431 326.548L377.84 337.956C374.188 345.13 372.879 353.269 374.098 361.226C375.317 369.183 379.002 376.557 384.634 382.309L411.81 409.485C419.02 416.686 428.795 420.731 438.985 420.731C449.176 420.731 458.951 416.686 466.161 409.485C469.824 405.903 472.734 401.626 474.721 396.904C476.708 392.182 477.732 387.111 477.732 381.989C477.732 376.866 476.708 371.795 474.721 367.073C472.734 362.351 469.824 358.074 466.161 354.492ZM357.458 300.141C348.488 309.088 337.068 315.177 324.639 317.637C312.211 320.097 299.332 318.818 287.63 313.962C275.928 309.106 265.927 300.891 258.892 290.354C251.856 279.818 248.101 267.432 248.101 254.763C248.101 242.093 251.856 229.708 258.892 219.171C265.927 208.635 275.928 200.419 287.63 195.564C299.332 190.708 312.211 189.429 324.639 191.889C337.068 194.349 348.488 200.437 357.458 209.385C363.427 215.338 368.163 222.411 371.394 230.198C374.625 237.985 376.288 246.332 376.288 254.763C376.288 263.193 374.625 271.541 371.394 279.328C368.163 287.114 363.427 294.187 357.458 300.141ZM448.087 390.769C446.895 391.971 445.477 392.924 443.915 393.575C442.353 394.226 440.678 394.561 438.985 394.561C437.293 394.561 435.618 394.226 434.056 393.575C432.494 392.924 431.076 391.971 429.884 390.769L402.708 363.594C401.507 362.402 400.553 360.984 399.903 359.422C399.252 357.86 398.917 356.185 398.917 354.492C398.917 352.8 399.252 351.125 399.903 349.563C400.553 348.001 401.507 346.583 402.708 345.391C403.9 344.19 405.318 343.236 406.88 342.585C408.442 341.934 410.118 341.599 411.81 341.599C413.502 341.599 415.177 341.934 416.74 342.585C418.302 343.236 419.719 344.19 420.911 345.391L448.087 372.567C449.288 373.758 450.242 375.176 450.893 376.738C451.543 378.3 451.878 379.976 451.878 381.668C451.878 383.36 451.543 385.036 450.893 386.598C450.242 388.16 449.288 389.578 448.087 390.769Z" fill="#F9345F"/>
</svg>
